<?xml version="1.0" encoding="utf-8"?>
<!-- Generator: Adobe Illustrator 19.0.0, SVG Export Plug-In . SVG Version: 6.00 Build 0)  -->
<svg version="1.1" xmlns="http://www.w3.org/2000/svg" xmlns:xlink="http://www.w3.org/1999/xlink" x="0px" y="0px"
	 viewBox="0 0 794.8 718.3" style="enable-background:new 0 0 794.8 718.3;" xml:space="preserve">
<style type="text/css">
	.st0{opacity:0.5;fill:url(#XMLID_235_);}
	.st1{opacity:0.5;fill:#4ECE5E;}
	.st2{opacity:0.5;fill:#50C9CC;}
	.st3{opacity:0.5;fill:#21C140;}
	.st4{opacity:0.5;fill:url(#XMLID_236_);}
	.st5{opacity:0.5;fill:url(#XMLID_237_);}
	.st6{fill:#03556B;}
	.st7{fill:#034456;}
	.st8{fill:#BDE1FC;}
	.st9{fill:#88D0FD;}
	.st10{fill:#015F7F;}
	.st11{fill:#014E6A;}
	.st12{fill:#01CEF0;}
	.st13{fill:#1CB4D6;}
	.st14{fill:#BDBDBD;}
	.st15{fill:#D4D4D4;}
	.st16{fill:#F5F5F5;}
	.st17{fill:#E6E6E6;}
	.st18{fill:#EB5793;}
	.st19{fill:#4FC3F7;}
	.st20{fill:#62DBFB;}
	.st21{fill:#01D0FB;}
	.st22{opacity:0.8;}
	.st23{fill:#03F97E;}
	.st24{fill:#00D7DF;}
	.st25{fill:#00B6BD;}
	.st26{fill:#FF7956;}
	.st27{fill:#FF6243;}
	.st28{fill:#E0E0E2;}
	.st29{fill:#FFB655;}
	.st30{fill:#FFDE55;}
	.st31{fill:#FFDAAA;}
	.st32{fill:#FFC477;}
	.st33{fill:#FFCD00;}
	.st34{fill:#57A4FF;}
	.st35{fill:#E6E9ED;}
	.st36{fill:#F0D0B4;}
	.st37{fill:#FCD770;}
	.st38{fill:#FFC729;}
	.st39{fill:#B4DD7F;}
	.st40{fill:#656D78;}
	.st41{fill:#445EA0;}
	.st42{fill:#2E4C89;}
	.st43{fill:#293D7C;}
	.st44{fill:#1A2B63;}
	.st45{fill:#FFFFFF;}
	.st46{fill:#D9EAFC;}
	.st47{fill:#C3DDF4;}
	.st48{fill:#AEC1ED;}
	.st49{fill:#FFAF10;}
	.st50{fill:#FF9518;}
	.st51{fill:#5DC1D8;}
	.st52{fill:#3C66B1;}
	.st53{fill:#52A2E7;}
	.st54{opacity:0.22;fill:#3C66B1;enable-background:new    ;}
	.st55{opacity:0.35;fill:#1D8747;}
	.st56{opacity:0.35;fill:#0EC6C6;}
</style>
<g id="Layer_6">
	<linearGradient id="XMLID_235_" gradientUnits="userSpaceOnUse" x1="437.8906" y1="666.3148" x2="439.1893" y2="31.2499">
		<stop  offset="0" style="stop-color:#00D4BF"/>
		<stop  offset="1" style="stop-color:#00B600;stop-opacity:0.8"/>
	</linearGradient>
	<circle id="XMLID_109_" class="st0" cx="438.5" cy="346.1" r="321.5"/>
	<circle id="XMLID_114_" class="st1" cx="720.5" cy="180.1" r="26.2"/>
	<circle id="XMLID_115_" class="st2" cx="740.5" cy="79.1" r="46.5"/>
	<circle id="XMLID_116_" class="st3" cx="679.5" cy="633.1" r="31.2"/>
	<linearGradient id="XMLID_236_" gradientUnits="userSpaceOnUse" x1="168.5948" y1="657.1068" x2="256.4961" y2="657.1068">
		<stop  offset="0" style="stop-color:#00D4BF"/>
		<stop  offset="1" style="stop-color:#00B600;stop-opacity:0.8"/>
	</linearGradient>
	<circle id="XMLID_188_" class="st4" cx="212.5" cy="657.1" r="44"/>
	<circle id="XMLID_191_" class="st3" cx="60.5" cy="235.1" r="26.3"/>
	<linearGradient id="XMLID_237_" gradientUnits="userSpaceOnUse" x1="100.86" y1="108.1067" x2="186.2309" y2="108.1067">
		<stop  offset="0" style="stop-color:#00D4BF"/>
		<stop  offset="1" style="stop-color:#00B600;stop-opacity:0.8"/>
	</linearGradient>
	<circle id="XMLID_192_" class="st5" cx="143.5" cy="108.1" r="42.7"/>
	<circle id="XMLID_193_" class="st2" cx="60.5" cy="457.1" r="51.9"/>
</g>
<g id="Layer_1">
	<path id="XMLID_13_" class="st6" d="M639.1,484.3V225.4c0-19.1-16.2-34.6-36.2-34.6H283.9c-20,0-36.2,15.5-36.2,34.6v258.9H639.1z"
		/>
	<path id="XMLID_12_" class="st7" d="M602.8,190.8h-80.2c20,0,36.2,15.5,36.2,34.6v258.9H247.6h391.4V225.4
		C639.1,206.3,622.8,190.8,602.8,190.8z"/>
	<path id="XMLID_11_" class="st8" d="M288,450.8V242.3c0-9.6,8.1-17.3,18.1-17.3h271.8c10,0,18.1,7.8,18.1,17.3v208.9L288,450.8z"/>
	<path id="XMLID_10_" class="st9" d="M558.9,225v226.2l37.2,0V242.3c0-9.6-8.1-17.3-18.1-17.3H558.9z"/>
	<path id="XMLID_9_" class="st10" d="M245.4,504.7c-15,0-27.2-11.4-27.2-25.6v-37.7c0-4.8,4.1-8.6,9.1-8.6h432.2
		c5,0,9.1,3.9,9.1,8.6v37.7c0,14.1-12.2,25.6-27.2,25.6H245.4z"/>
	<path id="XMLID_8_" class="st11" d="M659.4,432.8h-56.2c5,0,9.1,3.9,9.1,8.6v37.7c0,14.1-12.2,25.6-27.2,25.6h56.2
		c15,0,27.2-11.4,27.2-25.6v-37.7C668.5,436.7,664.4,432.8,659.4,432.8z"/>
	<path id="XMLID_7_" class="st12" d="M527.6,432.8V451c0,9.6-8.1,17.3-18.1,17.3H382.6c-10,0-18.1-7.8-18.1-17.3v-18.2"/>
	<path id="XMLID_6_" class="st13" d="M482.3,432.8V451c0,9.6-8.1,17.3-18.1,17.3h45.3c10,0,18.1-7.8,18.1-17.3v-18.2H482.3z"/>
	<g id="XMLID_2_">
		<path id="XMLID_5_" class="st10" d="M327.8,283.5h81.5c3.8,0,6.8-2.9,6.8-6.5c0-3.6-3-6.5-6.8-6.5h-81.5c-3.8,0-6.8,2.9-6.8,6.5
			C321,280.6,324.1,283.5,327.8,283.5z"/>
		<path id="XMLID_4_" class="st10" d="M454.7,305.1H327.8c-3.8,0-6.8,2.9-6.8,6.5c0,3.6,3,6.5,6.8,6.5h126.9c3.8,0,6.8-2.9,6.8-6.5
			C461.5,308,458.4,305.1,454.7,305.1z"/>
		<path id="XMLID_3_" class="st10" d="M454.7,339.7H327.8c-3.8,0-6.8,2.9-6.8,6.5s3,6.5,6.8,6.5h126.9c3.8,0,6.8-2.9,6.8-6.5
			S458.4,339.7,454.7,339.7z"/>
	</g>
</g>
<g id="Layer_2">
	<path id="XMLID_25_" class="st14" d="M410,544.6h73.2v94.8H410V544.6z"/>
	<path id="XMLID_24_" class="st15" d="M403.1,534.8h73.2v94.8h-73.2V534.8z"/>
	<path id="XMLID_23_" class="st16" d="M396.2,525h73.2v94.8h-73.2V525z"/>
	<path id="XMLID_22_" class="st17" d="M462.5,525h6.9v94.8h-6.9V525z"/>
	<path id="XMLID_21_" class="st18" d="M410,538.2h45.6V552H410L410,538.2z"/>
	<circle id="XMLID_20_" class="st19" cx="432.3" cy="566.8" r="6.9"/>
	<path id="XMLID_19_" d="M483.2,628c1,0,1.7-0.8,1.7-1.7v-81.7c0-1-0.8-1.7-1.7-1.7H478v-8.1c0-1-0.8-1.7-1.7-1.7h-5.2V525
		c0-1-0.8-1.7-1.7-1.7h-73.2c-1,0-1.7,0.8-1.7,1.7v5.6c0,1,0.8,1.7,1.7,1.7c1,0,1.7-0.8,1.7-1.7v-3.9h69.7v91.3h-69.7v-79.9
		c0-1-0.8-1.7-1.7-1.7c-1,0-1.7,0.8-1.7,1.7v81.7c0,1,0.8,1.7,1.7,1.7h5.2v8.1c0,1,0.8,1.7,1.7,1.7h5.2v8.1c0,1,0.8,1.7,1.7,1.7
		h73.2c1,0,1.7-0.8,1.7-1.7v-5.7c0-1-0.8-1.7-1.7-1.7s-1.7,0.8-1.7,1.7v4h-69.7v-6.3h7.9c1,0,1.7-0.8,1.7-1.7s-0.8-1.7-1.7-1.7
		h-14.8v-6.3h64.5c1,0,1.7-0.8,1.7-1.7v-83.3h3.5v91.3H427c-1,0-1.7,0.8-1.7,1.7s0.8,1.7,1.7,1.7h49.2c1,0,1.7-0.8,1.7-1.7v-83.3
		h3.5v80C481.4,627.2,482.2,628,483.2,628L483.2,628z"/>
	<path id="XMLID_32_" d="M457.3,552v-13.8c0-1-0.8-1.7-1.7-1.7H410c-1,0-1.7,0.8-1.7,1.7V552c0,1,0.8,1.7,1.7,1.7h45.6
		C456.5,553.7,457.3,552.9,457.3,552L457.3,552z M453.8,550.2h-42.1v-10.4h42.1L453.8,550.2L453.8,550.2z"/>
	<path id="XMLID_16_" d="M407.3,595.8c0,1,0.8,1.7,1.7,1.7h46.5c1,0,1.7-0.8,1.7-1.7s-0.8-1.7-1.7-1.7h-46.5
		C408.1,594.1,407.3,594.8,407.3,595.8z"/>
	<path id="XMLID_15_" d="M409.1,604.9h46.5c1,0,1.7-0.8,1.7-1.7s-0.8-1.7-1.7-1.7h-46.5c-1,0-1.7,0.8-1.7,1.7
		S408.1,604.9,409.1,604.9z"/>
	<path id="XMLID_27_" d="M419.3,585c0,1,0.8,1.7,1.7,1.7s1.7-0.8,1.7-1.7c0-5.3,4.3-9.5,9.5-9.5c5.3,0,9.5,4.3,9.5,9.5
		c0,1,0.8,1.7,1.7,1.7c1,0,1.7-0.8,1.7-1.7c0-5.1-3-9.6-7.3-11.7c1.8-1.6,2.9-3.9,2.9-6.5c0-4.8-3.9-8.6-8.6-8.6
		c-4.8,0-8.6,3.9-8.6,8.6c0,2.6,1.1,4.9,2.9,6.5C422.3,575.4,419.3,579.8,419.3,585z M427.1,566.8c0-2.9,2.3-5.2,5.2-5.2
		c2.9,0,5.2,2.3,5.2,5.2c0,2.9-2.3,5.2-5.2,5.2C429.4,572,427.1,569.6,427.1,566.8z"/>
</g>
<g id="Layer_3">
	<g id="XMLID_33_">
		<g id="XMLID_37_">
			<g id="XMLID_40_">
				<path id="XMLID_30_" class="st20" d="M655.8,266.6h-62c-17.9,0-34.1,7.3-45.8,19.1c-11.7,11.8-19,28.1-19,46
					c0,25.6,14.8,47.8,36.2,58.4l-0.6,4.4l-2.9,19.6c-1.6,10.9,4.2,14.2,12.8,7.3l15.4-12.4l15.3-12.3h50.7
					c17.9,0,34.1-7.3,45.8-19.1c11.7-11.8,19-28.1,19-46C720.6,295.8,691.6,266.6,655.8,266.6L655.8,266.6z"/>
			</g>
			<g id="XMLID_38_">
				<path id="XMLID_29_" class="st21" d="M697.9,282.2c-13,51.1-59.3,88.8-114.4,88.8c-17,0-33.1-3.6-47.6-10
					c6.3,12.6,16.7,22.9,29.3,29.1l-0.6,4.4l-2.9,19.6c-1.6,10.9,4.2,14.2,12.8,7.3l15.4-12.4l15.3-12.3h50.7
					c17.9,0,34.1-7.3,45.8-19.1s19-28.1,19-46C720.6,311.9,711.8,294.2,697.9,282.2L697.9,282.2z"/>
			</g>
		</g>
		<g id="XMLID_34_">
			<path id="XMLID_28_" d="M655.8,263.7h-62c-9.3,0-18.3,1.9-26.7,5.5c-1.5,0.6-2.1,2.3-1.5,3.8c0.6,1.5,2.3,2.1,3.8,1.5
				c7.7-3.3,15.9-5,24.4-5h62c34.1,0,61.9,27.9,61.9,62.2c0,16.6-6.4,32.2-18.1,44c-3.5,3.6-7.5,6.7-11.8,9.3c-1.4,0.8-1.8,2.6-1,4
				c0.5,0.9,1.5,1.4,2.5,1.4c0.5,0,1-0.1,1.5-0.4c4.7-2.8,9-6.3,12.9-10.1c12.8-12.8,19.8-29.9,19.8-48.1
				C723.5,294.2,693.1,263.7,655.8,263.7z"/>
			<path id="XMLID_26_" d="M676.8,390.3c-6.7,2.4-13.8,3.7-21,3.7h-50.7c-0.7,0-1.3,0.2-1.8,0.6l-30.7,24.7
				c-3.4,2.7-5.9,3.3-6.9,2.8c-1-0.6-1.8-3.1-1.2-7.4l3.5-24c0.2-1.2-0.5-2.5-1.6-3c-10.2-5.1-18.9-12.8-25-22.5
				c-6.3-9.9-9.6-21.5-9.6-33.3c0-16.6,6.4-32.2,18.1-44c2.3-2.3,4.9-4.5,7.6-6.5c1.3-0.9,1.6-2.7,0.6-4s-2.7-1.6-4-0.6
				c-2.9,2.1-5.7,4.5-8.3,7.1c-12.8,12.8-19.8,29.9-19.8,48.1c0,12.9,3.6,25.5,10.5,36.4c6.3,10,15.1,18.1,25.4,23.7l-3.2,22
				c-1.3,8.8,2,12.1,4,13.3c0.8,0.5,2.1,1,3.8,1c2.4,0,5.6-1,9.6-4.2l29.9-24.1h49.7c7.9,0,15.6-1.3,23-4c1.5-0.5,2.3-2.2,1.7-3.7
				C680,390.5,678.3,389.7,676.8,390.3L676.8,390.3z"/>
		</g>
	</g>
</g>
<g id="Layer_3_copy">
	<g id="XMLID_113_">
		<g id="XMLID_120_">
			<g id="XMLID_124_" class="st22">
				<path id="XMLID_125_" class="st23" d="M256.9,225.9c-35.8,0-64.8,29.1-64.8,65.1c0,18,7.3,34.2,19,46
					c11.7,11.8,27.9,19.1,45.8,19.1h50.7l15.3,12.3l15.4,12.4c8.6,6.9,14.3,3.6,12.8-7.3l-2.9-19.6l-0.6-4.4
					c21.5-10.6,36.2-32.8,36.2-58.4c0-18-7.3-34.2-19-46c-11.7-11.8-27.9-19.1-45.8-19.1L256.9,225.9L256.9,225.9z"/>
			</g>
			<g id="XMLID_122_">
				<path id="XMLID_123_" class="st23" d="M214.9,241.5c-13.9,11.9-22.7,29.7-22.7,49.5c0,18,7.3,34.2,19,46
					c11.7,11.8,27.9,19.1,45.8,19.1h50.7l15.3,12.3l15.4,12.4c8.6,6.9,14.3,3.6,12.8-7.3l-2.9-19.6l-0.6-4.4
					c12.6-6.2,22.9-16.5,29.3-29.1c-14.6,6.4-30.7,10-47.6,10C274.1,330.3,227.8,292.5,214.9,241.5L214.9,241.5z"/>
			</g>
		</g>
		<g id="XMLID_117_">
			<path id="XMLID_119_" d="M189.2,291c0,18.2,7,35.2,19.8,48.1c3.9,3.9,8.2,7.3,12.9,10.1c0.5,0.3,1,0.4,1.5,0.4
				c1,0,1.9-0.5,2.5-1.4c0.8-1.4,0.4-3.1-1-4c-4.3-2.6-8.2-5.7-11.8-9.3c-11.7-11.7-18.1-27.4-18.1-44c0-34.3,27.8-62.2,61.9-62.2
				h62c8.5,0,16.7,1.7,24.4,5c1.5,0.6,3.2,0,3.8-1.5c0.6-1.5,0-3.2-1.5-3.8c-8.5-3.6-17.4-5.5-26.7-5.5h-62
				C219.6,223,189.2,253.5,189.2,291z"/>
			<path id="XMLID_118_" d="M236,349.5c-1.5-0.5-3.2,0.2-3.7,1.7c-0.5,1.5,0.2,3.2,1.7,3.7c7.4,2.7,15.1,4,23,4h49.7l29.9,24.1
				c4.1,3.3,7.3,4.2,9.6,4.2c1.7,0,2.9-0.5,3.8-1c2-1.2,5.3-4.4,4-13.3l-3.2-22c10.4-5.5,19.1-13.7,25.4-23.7
				c6.9-10.9,10.5-23.5,10.5-36.4c0-18.2-7-35.2-19.8-48.1c-2.6-2.6-5.3-4.9-8.3-7.1c-1.3-0.9-3.1-0.7-4,0.6s-0.7,3.1,0.6,4
				c2.7,1.9,5.2,4.1,7.6,6.5c11.7,11.7,18.1,27.4,18.1,44c0,11.8-3.3,23.4-9.6,33.3c-6.1,9.7-14.8,17.5-25,22.5
				c-1.1,0.6-1.8,1.8-1.6,3l3.5,24c0.6,4.3-0.1,6.8-1.2,7.4c-1,0.6-3.6,0-6.9-2.8l-30.7-24.7c-0.5-0.4-1.2-0.6-1.8-0.6h-50.7
				C249.7,353.2,242.7,351.9,236,349.5L236,349.5z"/>
		</g>
	</g>
</g>
<g id="Layer_4">
	<g id="support">
		<path id="XMLID_67_" class="st24" d="M299.3,305.1v20.7c0,1.6-1.3,2.9-3,3h-44.3c-1.6,0-2.9-1.3-3-3v-20.7c0-3.3,2.6-5.9,5.9-5.9
			h8.9l10.3,5.9l10.3-5.9h8.9C296.6,299.2,299.3,301.9,299.3,305.1z"/>
		<path id="XMLID_66_" class="st25" d="M299.3,305.1v20.7c0,1.6-1.3,2.9-3,3h-44.3c-1.6,0-2.9-1.3-3-3h29.5
			c9.8,0,17.7-7.9,17.7-17.7v-5.9c0-0.8-0.2-1.7-0.5-2.4C297.9,300.7,299.3,302.8,299.3,305.1z"/>
		<path id="XMLID_65_" class="st26" d="M334.7,303.6c0,12.2-9.9,22.1-22.1,22.1c-4.8,0-9.5-1.6-13.3-4.4c-0.2-0.1-0.4-0.3-0.6-0.5
			l-5.3,2l1.4-6.1c-7.2-9.9-5.1-23.7,4.8-30.9c9.9-7.2,23.7-5.1,30.9,4.8C333.2,294.3,334.7,298.9,334.7,303.6z"/>
		<path id="XMLID_64_" class="st27" d="M334.7,303.6c0,12.2-9.9,22.1-22.1,22.1c-4.8,0-9.5-1.6-13.3-4.4c-0.2-0.1-0.4-0.3-0.6-0.5
			l-5.3,2l1.4-6.1c-0.1-0.2-0.3-0.4-0.4-0.6c3.6,2.5,7.9,3.8,12.3,3.8c12.2,0,22.1-9.9,22.1-22.2c0-4.4-1.3-8.7-3.8-12.4
			C331,289.4,334.7,296.3,334.7,303.6z"/>
		<path id="XMLID_63_" class="st28" d="M320.8,293.1c1.5,4,0,8.6-3.7,10.8c-1,0.5-1.6,1.5-1.6,2.6v0.1c0,1.6-1.3,3-3,3
			c-1.6,0-3-1.3-3-3v-0.1c0-3.2,1.7-6.1,4.5-7.7c1.1-0.7,1.7-1.9,1.4-3.2c-0.2-1.1-1-1.9-2.1-2.2c-1.6-0.4-3.2,0.5-3.6,2
			c-0.1,0.3-0.1,0.5-0.1,0.8h-5.9c0-2.7,1.2-5.2,3.3-6.9c2.4-1.9,5.5-2.4,8.4-1.5C317.9,288.7,319.9,290.6,320.8,293.1z"/>
		<circle id="XMLID_62_" class="st28" cx="312.6" cy="316.9" r="3"/>
		<path id="XMLID_61_" class="st29" d="M291.9,272.7v1.5c0,1.6-1.3,2.9-3,3h-1.5v-7.4h1.5C290.6,269.7,291.9,271,291.9,272.7z"/>
		<path id="XMLID_60_" class="st30" d="M291.9,249.1v10.3c0,3.2-1.7,6.1-4.4,7.7v-1.8l-8.3-2.3c-0.5,0.9-1.2,1.6-2,2.3
			c-3,2.3-7.2,2.2-7.4,1.5c-0.1-0.3,0.7-0.6,1.5-1.5c0.9-1.3,1.4-2.8,1.5-4.4h-1.5l-10.3,4.4v3c-2.4,0-4.4-2-4.4-4.4v-3
			c0-6.5,5.3-11.8,11.8-11.8H291.9z"/>
		<path id="XMLID_59_" class="st31" d="M286.1,283c-1.5,3.1-4.2,5.5-7.5,6.6c-2.9,1-6,1-8.9,0c-5.3-1.9-8.9-6.9-8.9-12.5v-11.8
			l10.3-4.4h1.5c0,1.6-0.5,3.1-1.5,4.4c-0.8,0.8-1.6,1.2-1.5,1.5c0.2,0.7,4.4,0.8,7.4-1.5c0.8-0.6,1.5-1.4,2-2.3l8.3,2.3v11.8
			C287.5,279.1,287,281.2,286.1,283z"/>
		<path id="XMLID_58_" class="st32" d="M287.5,265.3v11.8c0,5.6-3.5,10.6-8.9,12.5c-2.9,1-6,1-8.9,0c-2.6-0.9-4.8-2.6-6.4-4.8
			c1,0.8,2.2,1.4,3.4,1.8c2.9,1,6,1,8.9,0c5.3-1.9,8.8-6.9,8.9-12.5v-9.7L287.5,265.3z"/>
		<path id="XMLID_57_" class="st31" d="M284.5,299.2l-10.3,5.9l-10.3-5.9l5.9-4.4v-5.2c2.9,1,6,1,8.9,0v5.2L284.5,299.2z"/>
		<path id="XMLID_56_" class="st33" d="M291.9,249.1v10.3c0,3.2-1.7,6.1-4.4,7.7v-1.8l-0.6-0.2c1.4-1.6,2.1-3.6,2.1-5.7v-10.3H291.9
			z"/>
		<path id="XMLID_55_" class="st32" d="M284.5,299.2l-10.3,5.9l-1.5-0.8l8.9-5.1l-5.9-4.4v-4.5c1-0.1,2-0.3,3-0.7v5.2L284.5,299.2z"
			/>
		<polygon id="XMLID_54_" class="st34" points="263.9,311 263.9,319.9 259.4,322.8 255,319.9 255,311 		"/>
		<path id="XMLID_53_" class="st29" d="M260.9,269.7v7.4h-1.5c-1.6,0-2.9-1.3-3-3v-1.5c0-1.6,1.3-2.9,3-3H260.9z"/>
		<path id="XMLID_86_" d="M263.9,309.5H255c-0.8,0-1.5,0.7-1.5,1.5v8.9c0,0.5,0.2,1,0.7,1.2l4.4,3c0.5,0.3,1.1,0.3,1.6,0l4.4-3
			c0.4-0.3,0.7-0.7,0.7-1.2V311C265.3,310.2,264.7,309.5,263.9,309.5z M262.4,319.1l-3,2l-3-2v-6.6h5.9V319.1z"/>
		<path id="XMLID_83_" d="M315.8,286.5c-3.3-1.1-7-0.4-9.7,1.7c-2.5,2-3.9,4.9-3.9,8.1c0,0.8,0.7,1.5,1.5,1.5h5.9
			c0.8,0,1.5-0.7,1.5-1.5c0-0.4,0.2-0.9,0.6-1.2c0.4-0.3,0.9-0.4,1.4-0.3c0.5,0.1,0.9,0.6,1,1.1c0.1,0.6-0.1,1.3-0.7,1.6
			c-3.2,1.9-5.2,5.3-5.2,9.1c0,2.4,2,4.4,4.5,4.4c2.4,0,4.4-2,4.4-4.5l0,0c0-0.6,0.4-1.1,0.9-1.3c4.3-2.6,6.1-7.9,4.4-12.6
			C321.1,289.7,318.8,287.4,315.8,286.5z M316.3,302.6c-1.4,0.8-2.3,2.3-2.3,4c0,0.8-0.7,1.5-1.5,1.5c-0.8,0-1.5-0.7-1.5-1.5
			c0,0,0,0,0-0.1c0-2.7,1.4-5.1,3.7-6.4c1.6-1,2.5-2.9,2.1-4.7c-0.3-1.6-1.6-2.9-3.2-3.3c-0.4-0.1-0.8-0.1-1.2-0.1
			c-1.9,0-3.5,1.2-4.2,3h-3.1c0.3-1.7,1.3-3.2,2.6-4.3c2-1.6,4.6-2,7-1.2c2.1,0.7,3.8,2.3,4.5,4.3
			C320.7,297,319.4,300.7,316.3,302.6L316.3,302.6z"/>
		<path id="XMLID_80_" d="M312.6,312.5c-2.4,0-4.4,2-4.4,4.4s2,4.4,4.4,4.4s4.4-2,4.4-4.4S315,312.5,312.6,312.5z M312.6,318.4
			c-0.8,0-1.5-0.7-1.5-1.5s0.7-1.5,1.5-1.5s1.5,0.7,1.5,1.5S313.4,318.4,312.6,318.4z"/>
		<path id="XMLID_69_" d="M312.6,280c-10.8,0-20.1,7.3-22.8,17.7H285l-4.9-3.7v-3.5c2.9-1.3,5.3-3.4,6.9-6.1h4.9
			c4.1,0,7.4-3.3,7.4-7.4v-28c0-4.1-3.3-7.4-7.4-7.4h-35.4c-4.1,0-7.4,3.3-7.4,7.4v23.6c0,0.8,0.7,1.5,1.5,1.5h4.4
			c0,2.4,2,4.4,4.4,4.4h0.1c0.5,5.3,3.9,9.9,8.8,12v3.5l-4.9,3.7H255c-4.1,0-7.4,3.3-7.4,7.4v20.7c0,2.4,2,4.4,4.4,4.4h44.3
			c2.4,0,4.4-2,4.4-4.4v-1.7c11.3,6.5,25.7,2.7,32.2-8.6c6.5-11.3,2.7-25.7-8.6-32.2C320.8,281.1,316.7,280,312.6,280z M296.3,277.1
			c0,2.4-2,4.4-4.4,4.4h-3.6c0.3-1,0.5-1.9,0.6-3h0.1c2.4,0,4.4-2,4.4-4.4h3V277.1z M288.9,275.6v-4.4c0.8,0,1.5,0.7,1.5,1.5v1.5
			C290.4,275,289.8,275.6,288.9,275.6z M255.3,271.2h-3.2v-22.1c0-2.4,2-4.4,4.4-4.4h35.4c2.4,0,4.4,2,4.4,4.4v22.1h-3.2
			c-0.6-1.8-2.3-2.9-4.2-3v-0.4c2.8-1.9,4.4-5.1,4.4-8.4v-10.3c0-0.8-0.7-1.5-1.5-1.5h-23.6c-7.3,0-13.3,5.9-13.3,13.3v3
			c0,1.9,1,3.8,2.6,4.9C256.5,269.2,255.7,270.1,255.3,271.2z M259.4,275.6c-0.8,0-1.5-0.7-1.5-1.5v-1.5c0-0.8,0.7-1.5,1.5-1.5
			V275.6z M259.4,265.3v1.1c-0.9-0.5-1.5-1.5-1.5-2.5v-3c0-5.7,4.6-10.3,10.3-10.3h22.1v8.9c0,1.8-0.7,3.6-1.9,4.9
			c-0.2-0.2-0.4-0.3-0.7-0.4l-8.3-2.3c-0.6-0.2-1.3,0.1-1.6,0.6c-0.4,0.7-1,1.4-1.7,1.9c-1,0.7-2.1,1.2-3.4,1.5
			c0.8-1.4,1.2-3,1.3-4.6c0.1-0.8-0.5-1.5-1.3-1.6c0,0-0.1,0-0.1,0h-1.5c-0.2,0-0.4,0-0.6,0.1l-10.3,4.4
			C259.8,264.2,259.4,264.7,259.4,265.3z M262.4,277.1v-10.8l8.6-3.7c-0.1,0.6-0.4,1.2-0.8,1.7c-0.2,0.2-0.5,0.5-0.8,0.7
			c-0.8,0.4-1.2,1.4-1,2.3c0.2,0.6,0.7,1.1,1.4,1.3c2.9,0.5,5.9-0.2,8.3-2c0.7-0.5,1.2-1.1,1.7-1.8l6.2,1.7v10.7
			c0,1.5-0.3,3-0.9,4.4h-10.9v3h9.2c-4.1,5.1-11.5,5.9-16.6,1.8C264,284,262.4,280.7,262.4,277.1z M270.6,296
			c0.4-0.3,0.6-0.7,0.6-1.2v-3.2c1.9,0.4,4,0.4,5.9,0v3.2c0,0.5,0.2,0.9,0.6,1.2l4.1,3.1l-7.6,4.4l-7.6-4.4L270.6,296z M297.8,325.8
			c0,0.8-0.7,1.5-1.5,1.5h-44.3c-0.8,0-1.5-0.7-1.5-1.5v-20.7c0-2.4,2-4.4,4.4-4.4h8.5l10,5.7c0.5,0.3,1,0.3,1.5,0l10-5.7h4.2
			c-0.1,1-0.2,2-0.2,3c0,4.8,1.5,9.5,4.2,13.4l-1.2,5.5c-0.2,0.8,0.3,1.6,1.1,1.8c0.3,0.1,0.6,0,0.8-0.1l3.9-1.5V325.8z
			 M312.6,324.3c-4.7,0-9.3-1.6-13-4.6c-0.3-0.2-0.6-0.3-0.9-0.3c-0.2,0-0.4,0-0.5,0.1l-2.7,1l0.8-3.5c0.1-0.4,0-0.9-0.3-1.2
			c-2.6-3.5-4-7.8-4-12.2c0-11.4,9.2-20.7,20.7-20.7s20.7,9.2,20.7,20.7S324,324.3,312.6,324.3z"/>
	</g>
</g>
<g id="Layer_5">
	<g id="XMLID_110_">
		<g id="XMLID_138_">
			<g id="XMLID_163_">
				<path id="XMLID_108_" class="st35" d="M605.6,285.1v12.1c0,1.7-1.4,3-3,3h-3v3.9c0,1.2-1,2.1-2.1,2.1c-0.6,0-1.1-0.2-1.5-0.6
					l-5.4-5.4h-6.1c-1.7,0-3-1.4-3-3v-12.1c0-1.7,1.4-3,3-3h18.2C604.2,282.1,605.6,283.4,605.6,285.1z"/>
			</g>
			<g id="XMLID_161_">
				<path id="XMLID_107_" class="st35" d="M672.3,357.9V370c0,1.7-1.4,3-3,3h-18.2c-1.7,0-3-1.4-3-3v-12.1c0-1.7,1.4-3,3-3h3v-3.9
					c0-1.2,1-2.1,2.1-2.1c0.6,0,1.1,0.2,1.5,0.6l5.4,5.4h6.1C670.9,354.8,672.3,356.2,672.3,357.9z"/>
			</g>
			<g id="XMLID_159_">
				<path id="XMLID_106_" class="st36" d="M605.6,356.4h6.1V373h-6.1V356.4z"/>
			</g>
			<g id="XMLID_157_">
				<path id="XMLID_105_" class="st37" d="M613.8,334.7l2.3,14.1l6.1-7.6l6.1,7.6l0.9-5.2l3.7,0.6l3,3V373h-24.3v-16.7h-6.1h-3v-9.8
					c0-5.8,4.1-10.8,9.7-11.9l1.5-0.3L613.8,334.7z"/>
			</g>
			<g id="XMLID_155_">
				<path id="XMLID_104_" class="st37" d="M651.1,330.6v12.4c0,1.3-0.3,2.7-1,3.8s-1.5,2.2-2.6,2.9c-3.2,2.1-7.5,1.7-10.2-1
					l-1.4-1.4l-3-3l-3.7-0.6l1.5-8.7l3.2,1.1c1.3,0.5,2.5,1.2,3.5,2.2l3,3h1.5v-10.6H651.1z"/>
			</g>
			<g id="XMLID_153_">
				<path id="XMLID_103_" class="st38" d="M630.6,334.9l-1.5,8.7l-0.9,5.2l-6.1-7.6l4.5-7.6L630.6,334.9z"/>
			</g>
			<g id="XMLID_151_">
				<path id="XMLID_102_" class="st38" d="M617.7,333.6l4.5,7.6l-6.1,7.6l-2.3-14.1l-0.1-0.3L617.7,333.6z"/>
			</g>
			<g id="XMLID_149_">
				<path id="XMLID_101_" class="st39" d="M645,318.7v5.8c0,1.7-0.7,3.2-1.8,4.3l-1.3,1c-0.9,0.5-1.9,0.8-3,0.8c-1.7,0-3-1.4-3-3
					v-1.2c0-1.2,0.7-2.2,1.7-2.7l1.3-0.7v-6.1l-1.3-0.7c-1-0.5-1.7-1.6-1.7-2.7v-1.2c0-0.8,0.3-1.6,0.9-2.1c0.4-0.4,0.9-0.7,1.5-0.8
					c0.2,0,0.4-0.1,0.7-0.1c3.4,0,6.1,2.7,6.1,6.1V318.7z"/>
			</g>
			<g id="XMLID_147_">
				<path id="XMLID_100_" class="st36" d="M611.6,318.5v-4.8c0-1.5,0.3-3,0.9-4.3c0.5-1.1,1.2-2.2,2.1-3l0.1,0.1c3.9,2,8.2,3,12.6,3
					h5.5v4.5v4.5c0,5.5-2.4,9.4-6.1,11.1c-1.3,0.7-2.9,1-4.5,1l-4.5-1c-1.2-0.5-2.2-1.3-3-2.2c-1.4-1.5-2.3-3.5-2.8-5.9
					C611.7,320.6,611.6,319.5,611.6,318.5z"/>
			</g>
			<g id="XMLID_145_">
				<path id="XMLID_99_" class="st36" d="M617.7,329.6l4.5,1c1.6,0,3.2-0.3,4.5-1l0,0v4l-4.5,7.6l-4.5-7.6L617.7,329.6L617.7,329.6z
					"/>
			</g>
			<g id="XMLID_143_">
				<path id="XMLID_98_" class="st36" d="M643.2,328.8c1.1-1.1,1.8-2.6,1.8-4.3v-5.8c0.5-0.2,1-0.3,1.5-0.3c2.5,0,4.5,2,4.5,4.5v7.6
					H642v-0.8L643.2,328.8z"/>
			</g>
			<g id="XMLID_141_">
				<path id="XMLID_97_" class="st36" d="M611.6,318.5c0,1.1,0.1,2.1,0.3,3h-0.3c-1.7,0-3.2-0.7-4.3-1.8c-1.1-1.1-1.8-2.6-1.8-4.3
					c0-1.8,0.8-3.5,2.1-4.6c1.1-0.9,2.5-1.5,4-1.5h0.9c-0.6,1.3-0.9,2.8-0.9,4.3V318.5z"/>
			</g>
			<g id="XMLID_139_">
				<path id="XMLID_96_" class="st40" d="M632.9,309.4h-5.5c-4.4,0-8.7-1-12.6-3l-0.1-0.1c-0.9,0.9-1.6,1.9-2.1,3h-0.9
					c-1.5,0-2.9,0.6-4,1.5l-0.2-0.3c-1.2-1.8-1.9-3.9-1.9-6.1c0-2.4,1-4.6,2.6-6.2c1.6-1.6,3.8-2.6,6.2-2.6h3.5c1.9-1.9,4.5-3,7.4-3
					h1c7,0,12.7,5.7,12.7,12.7c0,1.4-0.2,2.8-0.7,4.1c-0.6,0.1-1.1,0.4-1.5,0.8c-0.6,0.5-0.9,1.3-0.9,2.1v1.2l-3,0.4V309.4z"/>
			</g>
		</g>
		<g id="XMLID_111_">
			<circle id="XMLID_95_" cx="626.8" cy="315.4" r="1.5"/>
			<circle id="XMLID_94_" cx="617.7" cy="315.4" r="1.5"/>
			<path id="XMLID_93_" d="M622.2,326c3.3,0,6.1-2.7,6.1-6.1h-3c0,1.7-1.4,3-3,3c-1.7,0-3-1.4-3-3h-3
				C616.2,323.3,618.9,326,622.2,326z"/>
			<path id="XMLID_121_" d="M648.3,350.9c2.7-1.8,4.3-4.8,4.3-8V323c0-3.3-2.7-6.1-6.1-6.1v-1.5c0-3.7-2.7-6.8-6.3-7.5
				c0.2-0.9,0.2-1.7,0.2-2.6c0-7.8-6.4-14.2-14.2-14.2h-1c-3.1,0-5.9,1.2-8,3h-2.9c-2.8,0-5.4,1.2-7.3,3v-12.1c0-2.5-2-4.5-4.5-4.5
				h-18.2c-2.5,0-4.5,2-4.5,4.5v12.1c0,2.5,2,4.5,4.5,4.5h5.4l5,5c0.7,0.7,1.6,1.1,2.6,1.1c2,0,3.7-1.6,3.7-3.7v-2.4h1.5
				c0.7,0,1.4-0.2,2-0.5c-0.3,1-0.5,2.1-0.5,3.2c0,2.2,0.6,4.3,1.7,6.2c-1.1,1.3-1.7,2.9-1.7,4.8c0,3.9,2.9,7,6.6,7.5
				c0.9,3.4,2.8,6,5.5,7.6v1.9l-4.2,0.8c-6.4,1.3-11,6.9-11,13.4v11.3h3v16.7h33.4v-23.8c1.7,1.2,3.6,1.8,5.6,1.8
				C644.8,352.5,646.7,352,648.3,350.9L648.3,350.9z M649.5,323v6.1H645c1-1.3,1.6-2.8,1.6-4.5V320C648.2,320,649.5,321.3,649.5,323
				L649.5,323z M627.5,335.4l1.4,0.5l-1.5,9.3l-3.3-4.1L627.5,335.4z M628.3,332.5v-2c3.7-2.2,6.1-6.6,6.1-12v-4.9
				c0,1.7,1,3.3,2.5,4.1l0.5,0.3v4.2l-0.5,0.3c-1.5,0.8-2.5,2.3-2.5,4.1v1.2c0,2.5,2,4.5,4.5,4.5c0.5,0,1-0.1,1.5-0.2v7.1l-2-2
				c-1.2-1.2-2.6-2-4.1-2.6L628.3,332.5z M643.5,315.4v9.1c0,2.5-2,4.5-4.5,4.5c-0.8,0-1.5-0.7-1.5-1.5v-1.2c0-0.6,0.3-1.1,0.8-1.4
				l2.2-1.1V316l-2.2-1.1c-0.5-0.3-0.8-0.8-0.8-1.4v-1.2c0-0.8,0.7-1.5,1.5-1.5C641.4,310.9,643.5,312.9,643.5,315.4L643.5,315.4z
				 M614.4,297.2h0.4c-1,1.8-1.6,3.9-1.6,6.1h3c0-5,4.1-9.1,9.1-9.1h1c6.2,0,11.2,5,11.2,11.2c0,1-0.2,2-0.4,2.9
				c-1.5,0.7-2.6,2.3-2.6,4.1v-4.5h-7c-4.1,0-8.2-1-12-2.9l-1-0.5l-0.8,0.8c-0.8,0.8-1.4,1.6-1.9,2.6h0c-1.3,0-2.4,0.3-3.5,0.9
				c-0.7-1.3-1.1-2.7-1.1-4.2C607.1,300.5,610.4,297.2,614.4,297.2L614.4,297.2z M604.1,297.2c0,0.8-0.7,1.5-1.5,1.5H598v5.4
				c0,0.5-0.7,0.8-1.1,0.4l-5.9-5.9h-6.7c-0.8,0-1.5-0.7-1.5-1.5v-12.1c0-0.8,0.7-1.5,1.5-1.5h18.2c0.8,0,1.5,0.7,1.5,1.5V297.2z
				 M607.1,315.4c0-2.1,1.4-3.8,3.3-4.4c-0.2,0.8-0.3,1.7-0.3,2.6v4.8c0,0.4,0,0.8,0,1.3C608.4,319.1,607.1,317.4,607.1,315.4z
				 M613.2,318.5v-4.8c0-2,0.7-3.9,1.9-5.5c3.9,1.8,8.1,2.7,12.3,2.7h4v7.6c0,6.4-3.6,10.6-9.1,10.6S613.2,324.9,613.2,318.5z
				 M622.2,332.1c1.1,0,2.1-0.1,3-0.4v1.5l-3,5.1l-3-5.1v-1.5C620.2,332,621.2,332.1,622.2,332.1z M617,335.3l3.5,5.8l-3.3,4.1
				l-1.6-9.6L617,335.3z M607.1,357.9h3v13.6h-3V357.9z M633.9,343.2l-2.1,2.1l2.6,2.6v23.6h-21.2v-22.7h-3v6.1h-6.1v-8.2
				c0-5,3.6-9.4,8.5-10.4l2.7,16.2l7-8.8l7,8.8l2.6-15.5l1.5,0.5c1.1,0.4,2.1,1,3,1.8l3.5,3.5h3.7v-10.6h6.1v10.8
				c0,2.2-1.1,4.2-2.9,5.5c-2.6,1.7-6.1,1.4-8.3-0.8L633.9,343.2z"/>
			<path id="XMLID_76_" d="M598,289.7h3v3h-3V289.7z"/>
			<path id="XMLID_75_" d="M585.9,289.7h3v3h-3V289.7z"/>
			<path id="XMLID_74_" d="M591.9,289.7h3v3h-3V289.7z"/>
			<path id="XMLID_73_" d="M664.7,362.4h3v3h-3V362.4z"/>
			<path id="XMLID_72_" d="M652.6,362.4h3v3h-3V362.4z"/>
			<path id="XMLID_71_" d="M658.6,362.4h3v3h-3V362.4z"/>
			<path id="XMLID_112_" d="M669.2,353.3h-5.4l-5-5c-0.7-0.7-1.6-1.1-2.6-1.1c-2,0-3.7,1.6-3.7,3.7v2.4h-1.5c-2.5,0-4.5,2-4.5,4.5
				V370c0,2.5,2,4.5,4.5,4.5h18.2c2.5,0,4.5-2,4.5-4.5v-12.1C673.8,355.4,671.8,353.3,669.2,353.3z M670.8,370
				c0,0.8-0.7,1.5-1.5,1.5h-18.2c-0.8,0-1.5-0.7-1.5-1.5v-12.1c0-0.8,0.7-1.5,1.5-1.5h4.5v-5.4c0-0.5,0.7-0.8,1.1-0.4l5.9,5.9h6.7
				c0.8,0,1.5,0.7,1.5,1.5V370z"/>
		</g>
	</g>
</g>
<g id="Layer_8">
	<rect id="XMLID_172_" x="428.5" y="138.3" class="st41" width="19.6" height="10.3"/>
	<rect id="XMLID_171_" x="428.5" y="138.3" class="st42" width="4.9" height="10.3"/>
	<path id="XMLID_170_" class="st43" d="M461.2,148.3H414c-0.7,0-1.3,0.6-1.3,1.3v6.4c0,0.7,0.6,1.3,1.3,1.3h47.2L461.2,148.3
		L461.2,148.3z"/>
	<path id="XMLID_169_" class="st44" d="M417.7,156v-6.4c0-0.7,0.6-1.3,1.3-1.3H414c-0.7,0-1.3,0.6-1.3,1.3v6.4
		c0,0.7,0.6,1.3,1.3,1.3h4.9C418.3,157.3,417.7,156.7,417.7,156z"/>
	<path id="XMLID_168_" class="st43" d="M493.2,63.6H383.5c-0.7,0-1.3,0.6-1.3,1.3v72.4c0,0.7,0.6,1.3,1.3,1.3h77.8v-38.1
		c0-1,0.8-1.7,1.7-1.7h31.5V64.9C494.5,64.2,493.9,63.6,493.2,63.6z"/>
	<path id="XMLID_167_" class="st45" d="M387.8,125.8c0,0.4,0.3,0.8,0.8,0.8h72.7v-26.1c0-1,0.8-1.7,1.7-1.7h25.9V76.1H387.8V125.8z"
		/>
	<path id="XMLID_166_" class="st46" d="M392.7,125.8V76.1h-4.9v49.8c0,0.4,0.3,0.8,0.8,0.8h4.9C393.1,126.6,392.7,126.3,392.7,125.8
		z"/>
	<circle id="XMLID_165_" class="st41" cx="438.4" cy="132.6" r="3.4"/>
	<path id="XMLID_164_" class="st47" d="M461.2,104.5h-13.3c-0.4,0-0.7,0.3-0.7,0.7v14.9c0,0.4,0.3,0.7,0.7,0.7h13.3V104.5z"/>
	<path id="XMLID_162_" class="st48" d="M452.1,120.2v-14.9c0-0.4,0.3-0.7,0.7-0.7h-4.9c-0.4,0-0.7,0.3-0.7,0.7v14.9
		c0,0.4,0.3,0.7,0.7,0.7h4.9C452.5,120.9,452.1,120.6,452.1,120.2z"/>
	<path id="XMLID_160_" class="st47" d="M463,98.7h11.6V82.4c0-0.7-0.6-1.2-1.2-1.2h-70c-0.7,0-1.2,0.6-1.2,1.2V99
		c0,0.7,0.6,1.2,1.2,1.2h57.9C461.4,99.4,462.1,98.7,463,98.7z"/>
	<path id="XMLID_158_" class="st48" d="M407,99V82.4c0-0.7,0.6-1.2,1.2-1.2h-4.9c-0.7,0-1.2,0.6-1.2,1.2V99c0,0.7,0.6,1.2,1.2,1.2
		h4.9C407.6,100.2,407,99.7,407,99z"/>
	<path id="XMLID_156_" class="st49" d="M488.1,70.1h-99.6c-0.4,0-0.8,0.3-0.8,0.8v5.5h101.1v-5.5C488.9,70.4,488.6,70.1,488.1,70.1z
		"/>
	<path id="XMLID_154_" class="st50" d="M393.5,70.1h-4.9c-0.4,0-0.8,0.3-0.8,0.8v5.5h4.9v-5.5C392.7,70.4,393.1,70.1,393.5,70.1z"/>
	<g id="XMLID_189_">
		<path id="XMLID_152_" class="st51" d="M425,108.5h-21c-1,0-1.9-0.8-1.9-1.9c0-1,0.8-1.9,1.9-1.9h21c1,0,1.9,0.8,1.9,1.9
			C426.9,107.6,426,108.5,425,108.5z"/>
		<path id="XMLID_150_" class="st51" d="M425,114.6h-21c-1,0-1.9-0.8-1.9-1.9c0-1,0.8-1.9,1.9-1.9h21c1,0,1.9,0.8,1.9,1.9
			C426.9,113.8,426,114.6,425,114.6z"/>
		<path id="XMLID_148_" class="st51" d="M425,120.7h-21c-1,0-1.9-0.8-1.9-1.9c0-1,0.8-1.9,1.9-1.9h21c1,0,1.9,0.8,1.9,1.9
			C426.9,119.9,426,120.7,425,120.7z"/>
		<path id="XMLID_146_" class="st51" d="M441.5,108.5h-10.8c-1,0-1.9-0.8-1.9-1.9c0-1,0.8-1.9,1.9-1.9h10.8c1,0,1.9,0.8,1.9,1.9
			C443.3,107.6,442.5,108.5,441.5,108.5z"/>
		<path id="XMLID_144_" class="st51" d="M441.5,114.6h-10.8c-1,0-1.9-0.8-1.9-1.9c0-1,0.8-1.9,1.9-1.9h10.8c1,0,1.9,0.8,1.9,1.9
			C443.3,113.8,442.5,114.6,441.5,114.6z"/>
		<path id="XMLID_142_" class="st51" d="M441.5,120.7h-10.8c-1,0-1.9-0.8-1.9-1.9c0-1,0.8-1.9,1.9-1.9h10.8c1,0,1.9,0.8,1.9,1.9
			C443.3,119.9,442.5,120.7,441.5,120.7z"/>
	</g>
	<path id="XMLID_140_" class="st41" d="M507.9,98.5c1.1,0,2,0.9,2,2v60.3c0,1.1-0.9,2-2,2H463c-1.1,0-2-0.9-2-2v-60.3
		c0-1.1,0.9-2,2-2L507.9,98.5L507.9,98.5z"/>
	<path id="XMLID_137_" class="st45" d="M466.4,154.9c-0.7,0-1.2-0.6-1.2-1.2v-50.1c0-0.7,0.6-1.2,1.2-1.2h38.1
		c0.7,0,1.2,0.6,1.2,1.2v50.1c0,0.7-0.6,1.2-1.2,1.2H466.4z"/>
	<path id="XMLID_136_" class="st46" d="M470.1,153.7v-50.1c0-0.7,0.6-1.2,1.2-1.2h-4.9c-0.7,0-1.2,0.6-1.2,1.2v50.1
		c0,0.7,0.6,1.2,1.2,1.2h4.9C470.7,154.9,470.1,154.4,470.1,153.7z"/>
	<path id="XMLID_135_" class="st41" d="M483.1,159.9c-0.7,0-1.2-0.6-1.2-1.2v-0.5c0-0.7,0.6-1.2,1.2-1.2h4.7c0.7,0,1.2,0.6,1.2,1.2
		v0.5c0,0.7-0.6,1.2-1.2,1.2H483.1z"/>
	<path id="XMLID_134_" class="st49" d="M505.7,107.1v-3.6c0-0.7-0.6-1.2-1.2-1.2h-38.1c-0.7,0-1.2,0.6-1.2,1.2v3.6L505.7,107.1
		L505.7,107.1z"/>
	<path id="XMLID_133_" class="st50" d="M471.4,102.3h-4.9c-0.7,0-1.2,0.6-1.2,1.2v3.6h4.9v-3.6C470.1,102.9,470.7,102.3,471.4,102.3
		z"/>
	<g id="XMLID_179_">
		<path id="XMLID_132_" class="st51" d="M494,129.9h-17c-1,0-1.9-0.8-1.9-1.9c0-1,0.8-1.9,1.9-1.9h17c1,0,1.9,0.8,1.9,1.9
			C495.8,129.1,495,129.9,494,129.9z"/>
		<path id="XMLID_131_" class="st51" d="M494,135.7h-17c-1,0-1.9-0.8-1.9-1.9c0-1,0.8-1.9,1.9-1.9h17c1,0,1.9,0.8,1.9,1.9
			C495.8,134.9,495,135.7,494,135.7z"/>
		<path id="XMLID_130_" class="st51" d="M494,141.5h-17c-1,0-1.9-0.8-1.9-1.9c0-1,0.8-1.9,1.9-1.9h17c1,0,1.9,0.8,1.9,1.9
			C495.8,140.6,495,141.5,494,141.5z"/>
	</g>
	<path id="XMLID_129_" class="st47" d="M501.9,121.8c0,0.7-0.6,1.2-1.2,1.2h-30.3c-0.7,0-1.2-0.6-1.2-1.2v-10.3
		c0-0.7,0.6-1.2,1.2-1.2h30.3c0.7,0,1.2,0.6,1.2,1.2V121.8z"/>
	<path id="XMLID_128_" class="st48" d="M474,121.8v-10.3c0-0.7,0.6-1.2,1.2-1.2h-4.9c-0.7,0-1.2,0.6-1.2,1.2v10.3
		c0,0.7,0.6,1.2,1.2,1.2h4.9C474.5,123,474,122.5,474,121.8z"/>
	<path id="XMLID_127_" class="st47" d="M497.4,151c0,0.7-0.6,1.2-1.2,1.2h-21.4c-0.7,0-1.2-0.6-1.2-1.2v-4.2c0-0.7,0.6-1.2,1.2-1.2
		h21.4c0.7,0,1.2,0.6,1.2,1.2V151L497.4,151z"/>
	<path id="XMLID_126_" class="st48" d="M478.5,151v-4.2c0-0.7,0.6-1.2,1.2-1.2h-4.9c-0.7,0-1.2,0.6-1.2,1.2v4.2
		c0,0.7,0.6,1.2,1.2,1.2h4.9C479,152.2,478.5,151.7,478.5,151z"/>
</g>
<g id="Layer_9">
	<path id="XMLID_199_" class="st52" d="M448.5,384.6c-3.1,0-6.8,1.2-6.8,1.2c-7.9,2.8-13.5,10.3-13.5,19.2
		c0,11.2,9.1,20.4,20.4,20.4c11.2,0,20.4-9.1,20.4-20.4C468.8,393.7,459.7,384.6,448.5,384.6z M448.5,421.4
		c-9.1,0-16.4-7.3-16.4-16.4s7.3-16.4,16.4-16.4c9.1,0,16.4,7.3,16.4,16.4C464.9,414,457.5,421.4,448.5,421.4z"/>
	<circle id="XMLID_183_" class="st53" cx="448.5" cy="405" r="17.6"/>
	<g id="XMLID_194_">
		<path id="XMLID_182_" class="st54" d="M460.3,388.4c2.4,3.3,3.8,7.4,3.8,11.8c0,11.2-9.1,20.4-20.4,20.4c-4.4,0-8.5-1.4-11.8-3.8
			c3.7,5.2,9.7,8.5,16.6,8.5c11.2,0,20.4-9.1,20.4-20.4C468.8,398.1,465.4,392.1,460.3,388.4z"/>
		<path id="XMLID_181_" class="st52" d="M443.4,398.7c0.6-0.4,1.3-0.8,2-1v3.2c-1.8,1-3,3-3,5.2c0,3.3,2.7,6,6,6c3.3,0,6-2.7,6-6
			c0-2.2-1.2-4.1-3-5.2v-3.2c3.4,1.2,5.9,4.5,5.9,8.4c0,4.9-4,8.9-8.9,8.9s-8.9-4-8.9-8.9c0-2,0.7-3.9,1.8-5.4
			C441.4,400.6,442.5,399.2,443.4,398.7z"/>
		<path id="XMLID_180_" class="st52" d="M448.5,402.3L448.5,402.3c-0.7,0-1.2-0.6-1.2-1.2v-4.9c0-0.7,0.6-1.2,1.2-1.2l0,0
			c0.7,0,1.2,0.6,1.2,1.2v4.9C449.7,401.8,449.1,402.3,448.5,402.3z"/>
	</g>
	<path id="XMLID_178_" d="M456.8,406c0,4.6-3.7,8.3-8.3,8.3s-8.3-3.7-8.3-8.3c0-1.8,0.6-3.6,1.7-5c0.2-0.3,0.2-0.7-0.1-0.9
		c-0.3-0.2-0.7-0.2-0.9,0.1c-1.3,1.7-2,3.7-2,5.8c0,5.3,4.3,9.6,9.6,9.6c5.3,0,9.6-4.3,9.6-9.6c0-4-2.5-7.6-6.3-9
		c-0.2-0.1-0.4,0-0.6,0.1c-0.2,0.1-0.3,0.3-0.3,0.5v3.2c0,0.2,0.1,0.4,0.3,0.5c1.6,1,2.7,2.8,2.7,4.7c0,3-2.4,5.4-5.4,5.4
		c-3,0-5.4-2.4-5.4-5.4c0-1.9,1-3.7,2.7-4.7c0.2-0.1,0.3-0.3,0.3-0.5v-3.2c0-0.2-0.1-0.4-0.3-0.5c-0.2-0.1-0.4-0.1-0.6-0.1
		c-0.7,0.3-1.5,0.6-2.1,1.1c-0.3,0.2-0.4,0.6-0.2,0.9c0.2,0.3,0.6,0.4,0.9,0.2c0.3-0.2,0.7-0.4,1-0.6v1.9c-1.8,1.2-3,3.3-3,5.5
		c0,3.7,3,6.6,6.6,6.6c3.7,0,6.6-3,6.6-6.6c0-2.2-1.1-4.3-3-5.5v-1.9C454.9,400,456.8,402.9,456.8,406z"/>
	<path id="XMLID_190_" d="M450.3,401.1v-4.9c0-1-0.8-1.9-1.9-1.9s-1.9,0.8-1.9,1.9v4.9c0,1,0.8,1.9,1.9,1.9S450.3,402.1,450.3,401.1
		z M447.8,401.1v-4.9c0-0.3,0.3-0.6,0.6-0.6s0.6,0.3,0.6,0.6v4.9c0,0.3-0.3,0.6-0.6,0.6C448.1,401.7,447.8,401.4,447.8,401.1z"/>
	<path id="XMLID_175_" d="M430.2,405c0,4.9,1.9,9.4,5.3,12.9c3.4,3.4,8,5.3,12.9,5.3c4.9,0,9.4-1.9,12.9-5.3s5.3-8,5.3-12.9
		c0-4.9-1.9-9.4-5.3-12.9c-3.4-3.4-8-5.3-12.9-5.3c-2.9,0-5.7,0.7-8.3,2c-0.3,0.2-0.4,0.5-0.3,0.8c0.2,0.3,0.5,0.4,0.8,0.3
		c2.4-1.2,5-1.9,7.7-1.9c9.4,0,17,7.6,17,17c0,9.4-7.6,17-17,17c-9.4,0-17-7.6-17-17c0-4.8,2.1-9.4,5.6-12.6c0.3-0.2,0.3-0.6,0-0.9
		s-0.6-0.3-0.9,0C432.4,394.9,430.2,399.8,430.2,405z"/>
	<path id="XMLID_174_" d="M463.3,390.1c-4-4-9.2-6.1-14.8-6.1c-2.8,0-5.6,0.6-8.2,1.7c-0.3,0.1-0.5,0.5-0.3,0.8s0.5,0.5,0.8,0.3
		c2.4-1,5-1.6,7.7-1.6c10.9,0,19.7,8.9,19.7,19.7c0,10.9-8.9,19.7-19.7,19.7s-19.7-8.9-19.7-19.7c0-6.1,2.8-11.8,7.6-15.5
		c0.3-0.2,0.3-0.6,0.1-0.9c-0.2-0.3-0.6-0.3-0.9-0.1c-2.4,1.9-4.5,4.4-5.9,7.2c-1.4,2.9-2.2,6.1-2.2,9.3c0,5.6,2.2,10.9,6.1,14.8
		c4,4,9.2,6.1,14.8,6.1c5.6,0,10.9-2.2,14.8-6.1c4-4,6.1-9.2,6.1-14.8C469.4,399.4,467.3,394.1,463.3,390.1z"/>
</g>
<g id="Layer_10">
	<path id="XMLID_186_" class="st55" d="M264.4,559.3c-0.3-1.6,0-3.2,0.9-4.6l11.5-17.7c1.3-2.1,3.4-3.5,5.8-4
		c2.4-0.5,4.9-0.1,6.9,1.3l17.7,11.5c2.1,1.4,3.1,3.8,2.7,6.3c-0.5,2.4-2.3,4.4-4.7,4.9l-13.7,2.9c5,23.7,28.4,39,52.2,33.9l4.8-1
		c1.7-0.3,3.3,0.7,3.6,2.4c0.3,1.7-0.7,3.3-2.4,3.6l-4.8,1c-13.1,2.8-26.5,0.3-37.7-7c-11.2-7.3-18.9-18.5-21.7-31.6
		c-0.7-3.3,1.4-6.5,4.7-7.2l13.7-2.9c0,0,0,0,0,0c0,0,0,0,0,0c0,0,0,0,0,0l-17.7-11.5c-0.7-0.4-1.5-0.6-2.3-0.4s-1.5,0.6-1.9,1.3
		L270.4,558l0,0c0,0,0,0,0,0c0,0,0,0,0,0l3.3-0.7c1.7-0.3,3.3,0.7,3.6,2.4c0.3,1.7-0.7,3.3-2.4,3.6l-3.3,0.7
		c-2.4,0.5-4.9-0.5-6.3-2.5C264.9,560.8,264.5,560,264.4,559.3z"/>
	<path id="XMLID_187_" class="st56" d="M649.4,155.6c0.3,1.6,0.1,3.2-0.8,4.6L637.2,178c-1.3,2.1-3.4,3.5-5.8,4
		c-2.4,0.5-4.9,0.1-6.9-1.2l-17.8-11.4c-2.1-1.3-3.2-3.8-2.7-6.2c0.4-2.4,2.3-4.4,4.7-4.9l13.7-3c-5.2-23.7-28.7-38.8-52.4-33.6
		l-4.8,1c-1.6,0.4-3.3-0.7-3.6-2.3s0.7-3.3,2.3-3.6l4.8-1c13.1-2.9,26.5-0.4,37.8,6.8c11.3,7.2,19,18.4,21.9,31.5
		c0.7,3.3-1.4,6.6-4.7,7.3l-13.7,3c0,0,0,0,0,0c0,0,0,0,0,0c0,0,0,0,0,0l17.8,11.4c0.7,0.4,1.5,0.6,2.3,0.4c0.8-0.2,1.5-0.7,1.9-1.3
		l11.4-17.8l0,0c0,0,0,0,0,0c0,0,0,0,0,0l-3.3,0.7c-1.6,0.4-3.3-0.7-3.6-2.3c-0.4-1.6,0.7-3.3,2.3-3.6l3.3-0.7
		c2.4-0.5,4.9,0.4,6.3,2.5C648.9,154.1,649.3,154.8,649.4,155.6z"/>
</g>
</svg>
